<svg width="32" height="32" viewBox="0 0 32 32" fill="none" xmlns="http://www.w3.org/2000/svg">
  <rect width="32" height="32" rx="6" fill="#0D1117" />
  <path
    d="M16 5C9.373 5 4 10.373 4 17c0 5.302 3.438 9.8 8.207 11.387.6.11.823-.261.823-.58 0-.287-.01-1.05-.016-2.06-3.338.726-4.042-1.61-4.042-1.61-.546-1.387-1.333-1.758-1.333-1.758-1.09-.744.083-.73.083-.73 1.204.085 1.838 1.237 1.838 1.237 1.07 1.835 2.809 1.305 3.493.998.108-.784.42-1.306.763-1.606-2.665-.304-5.466-1.333-5.466-5.931 0-1.31.469-2.381 1.236-3.221-.124-.303-.536-1.523.116-3.176 0 0 1.008-.323 3.3 1.23a11.38 11.38 0 0 1 6 0c2.29-1.553 3.297-1.23 3.297-1.23.654 1.653.242 2.873.118 3.176.769.84 1.235 1.91 1.235 3.22 0 4.61-2.807 5.624-5.48 5.921.431.372.816 1.1.816 2.218 0 1.6-.014 2.891-.014 3.285 0 .321.22.695.83.578C24.565 26.797 28 22.3 28 17c0-6.627-5.373-12-12-12Z"
    fill="white" />
</svg>
