<?xml version="1.0" encoding="UTF-8"?> <svg xmlns="http://www.w3.org/2000/svg" width="130" height="59" viewBox="0 0 130 59" fill="none"><path d="M45.0167 31.1175C48.0962 31.1175 49.6359 28.8257 49.6359 24.6474C49.6359 20.7271 48.0013 19.0469 45.4692 19.0469H42.6379V31.1175H45.0167ZM42.6379 37.0275V49.8129H35.2896V13.1885H46.3594C53.1094 13.1885 57.1812 16.9541 57.1812 24.139C57.1812 31.9281 52.8613 37.0202 45.8632 37.0202H42.6379V37.0275Z" fill="#486A32"></path><path d="M59.7422 13.1885H79.1966V19.3048H67.0905V28.0593H77.6131V34.1757H67.0905V43.645H79.649V49.8055H59.7422V13.1885Z" fill="#486A32"></path><path d="M93.5212 29.231C95.6593 29.231 97.3449 27.4993 97.3449 24.0874C97.3449 20.0638 95.9585 19.0469 93.1782 19.0469H90.0988V29.231H93.5212ZM106.029 49.8055H98.3373L93.1782 35.1926H90.0988V49.8055H82.7505V13.1885H93.6233C100.271 13.1885 104.744 16.1951 104.744 23.2252C104.744 28.5236 102.657 31.7291 99.8771 33.4609L106.029 49.8055Z" fill="#486A32"></path><path d="M129.307 47.8232C127.074 49.1497 123.943 50.5203 119.828 50.5203C109.407 50.5203 106.627 42.3185 106.627 31.7807C106.627 21.2429 109.458 12.4294 119.331 12.4294C126.877 12.4294 129.161 17.7278 130 22.5104L123.104 24.3453C122.506 20.8302 121.316 18.6416 119.134 18.6416C114.917 18.6416 114.369 24.8537 114.369 30.9627C114.369 39.872 116.011 43.8955 121.024 43.8955C123.557 43.8955 125.789 42.8786 128.073 41.3458L129.314 47.8159L129.307 47.8232Z" fill="#486A32"></path><path d="M2.32764 56.5703H129.343" stroke="#486A32" stroke-width="3.89" stroke-miterlimit="10"></path><path d="M2.25472 44.1829C0.350143 43.1144 0.846354 42.2964 1.5031 41.7216C1.97013 41.3163 3.05011 41.1689 3.59011 41.0142C3.18876 40.5131 3.03552 39.7172 3.52443 39.614C4.38551 39.4225 5.1955 39.7762 6.04927 39.7246C6.42143 39.6951 6.74981 39.4446 6.65494 39.0172C6.61116 38.8403 6.45792 38.8182 6.34846 38.7961C5.75009 38.6929 5.26117 39.0835 4.71388 39.2677C4.37821 39.3782 3.96956 39.3709 3.78713 39.0098C3.65578 38.7592 3.83821 38.4424 3.65578 38.2213C3.612 38.1623 3.47335 38.1918 3.37119 38.1771C3.07201 38.1476 2.86039 38.4497 2.5758 38.4866C2.0285 38.5529 1.48851 38.575 0.948515 38.4276C0.525276 38.3171 0.313657 37.7497 0.503384 37.3444C0.678518 36.9612 1.10176 36.8359 1.32067 36.4748C1.5104 36.1432 1.255 36.0548 1.07986 35.7969C0.904732 35.5316 1.07986 35.1557 1.35716 34.9936C1.87526 34.6841 3.04282 35.6716 3.15957 34.8241C3.20336 34.5294 3.13768 34.2199 3.38579 34.1535C4.26145 33.8956 5.16631 34.1241 6.05657 34.2567C6.78629 33.6746 7.69115 33.5198 8.58141 33.2766C8.91708 33.1808 9.07762 32.8639 8.94627 32.5544C8.596 31.7365 8.91708 33.1366 7.96114 32.3113C7.87358 32.2376 7.77142 32.2007 7.68385 32.1491C7.57439 32.0828 7.42845 32.1713 7.35547 32.2892C7.14386 32.6355 6.87386 32.8787 6.53819 33.0187C6.37765 33.085 6.21711 32.9524 6.11495 32.8197C6.04198 32.7239 5.93981 32.5544 6.04927 32.4292C5.64063 33.3798 4.41469 33.4093 3.64119 33.1071C2.26201 32.5839 3.18876 32.326 3.71416 31.567C3.32011 31.5522 2.86768 31.6923 2.59769 31.3901C2.37877 31.1322 2.34958 30.7416 2.44445 30.41C2.50282 30.1963 2.77282 30.1595 2.96985 30.1226C3.32011 30.0637 3.81632 30.0047 3.95497 29.6363C3.81632 29.6142 3.80173 29.4447 3.78713 29.3784C3.73605 29.0468 3.49524 28.7225 3.72146 28.4351C3.80903 28.3098 4.00605 28.3025 4.152 28.2951C5.31225 28.2067 6.44332 28.4867 7.62547 28.2067C7.93925 28.133 8.20925 27.993 8.52303 27.9045C8.866 27.8014 8.97546 27.4182 9.24546 27.2487C9.61032 27.0203 10.0919 27.2266 10.5079 27.0939C10.6757 27.035 10.88 27.0129 10.9822 26.9245C11.1792 26.755 11.1135 26.3939 10.9822 26.1654C10.8144 25.878 10.486 25.7307 10.1941 25.7159C10.1941 25.878 9.98248 26.2244 9.89491 26.3276C9.82194 26.416 9.6468 26.4528 9.51545 26.4749C9.34762 26.5044 9.10681 26.0696 8.94627 26.1728C8.55222 26.4307 8.53033 27.4845 7.99763 27.2192C7.68385 27.0645 7.50872 26.3718 7.10737 26.5265C6.74981 26.6592 6.53819 27.2855 6.18792 27.455C5.92522 27.5803 5.68441 27.6245 5.39252 27.654C5.39982 27.654 5.39982 26.8876 4.52415 27.4403C4.23226 27.6245 4.20308 28.074 3.80903 28.0372C3.37119 27.993 3.53173 27.4477 3.50984 27.1013C3.29092 27.1382 3.1012 27.3076 2.86768 27.1529C2.70715 27.0424 2.71444 26.8655 2.73633 26.7107C2.78741 26.3202 3.45876 25.4138 3.73605 25.318C2.42985 25.797 2.2912 23.8736 4.32713 23.8736C4.53145 23.8736 3.50984 22.6872 5.41441 23.5863C6.12954 23.9179 6.7571 23.0557 6.13684 22.5251C5.91062 22.3335 5.68441 21.3682 7.48683 22.1272C7.5452 22.1493 7.63277 21.9945 7.69844 21.965C8.12168 21.8103 8.23844 21.3829 8.09249 20.985C7.65466 20.985 7.34088 21.4124 6.89575 21.2355C6.64035 21.1397 6.73521 20.8671 6.64764 20.6755C6.29008 20.9334 5.77198 20.646 5.93981 20.2333C6.09306 19.8427 6.4944 19.629 6.80089 19.3564C7.66196 18.5753 8.55952 17.6173 9.77815 17.5215C10.0773 17.4994 10.3109 17.2193 10.1503 16.9467C10.0409 16.7625 9.76356 16.7772 9.59572 16.8509C9.24545 17.0056 8.92438 17.2488 8.57411 17.4036C8.11439 17.6025 7.60358 17.5804 7.10007 17.5215C6.95413 17.5067 6.78629 17.4625 6.71332 17.3225C6.44332 16.7698 7.30439 16.5267 7.8152 16.394C7.75682 16.4014 7.37737 16.1508 7.34818 16.114C7.21683 15.9003 7.2825 15.6276 7.50142 15.5318C8.06331 15.2518 9.59572 15.3771 10.143 15.1044C10.2452 15.0528 10.4349 15.0086 10.4495 14.8318C10.4641 14.6328 10.5225 14.3159 10.3473 14.2717C10.0044 14.2054 8.82222 14.0727 8.69816 13.7411C8.58871 13.439 8.88789 13.2621 9.01194 12.9969C9.07762 12.8642 9.26005 12.7979 9.43518 12.8347C9.9241 12.9453 10.7414 12.96 11.0552 12.6063C11.1281 12.5179 11.3325 11.6041 11.2522 11.5378L10.5298 11.6704C10.3327 11.4493 9.60302 12.2084 9.30383 11.7662C9.11411 11.4862 9.53734 11.1325 9.78545 10.904C9.36951 10.9335 8.26763 11.2356 8.31141 10.5577C8.3406 10.0934 8.73465 9.42284 9.62491 9.54811C9.74167 9.56285 9.34762 9.16492 10.0117 9.01017C10.7998 8.81857 11.2887 9.40073 12.0184 9.20913C11.9892 8.92174 12.1862 8.66382 12.0038 8.60487C11.3179 8.39116 10.3109 8.81857 9.82194 8.0964C9.6541 7.85322 9.52275 7.48476 9.72707 7.24158C9.77815 7.17526 9.84383 7.17526 9.84383 7.11631C10.1284 7.13105 11.4419 7.61741 11.7119 7.52898C11.7776 7.50687 11.4711 6.96156 11.4857 6.85839C11.5003 6.71838 10.9311 6.68153 10.8727 6.57099C10.7487 6.34255 10.4057 6.29097 10.3181 6.04779C10.2306 5.78987 10.289 5.50248 10.4495 5.25929C10.5735 5.07507 10.7998 5.13402 10.9822 5.20771C11.2376 5.31088 11.2814 5.70881 11.5368 5.72355C11.7192 5.73092 11.9892 5.82672 12.1206 5.59827C12.157 5.53195 12.157 5.41405 12.1206 5.36983C11.7338 4.9719 11.8214 4.34553 12.0111 3.90338C12.0403 3.82969 12.5292 4.0655 12.6606 4.02129C13.3173 3.83706 12.5511 3.47597 12.843 2.71695L12.9306 2.04637C13.0181 0.123031 14.2878 1.28735 13.6457 1.88425C14.3024 1.26524 14.3024 2.28955 13.6238 2.48851C14.463 2.23796 14.4557 3.03383 14.514 3.01172C14.1784 3.14436 13.8792 4.31605 15.4189 3.68231C15.4919 3.65283 15.7838 3.74126 15.813 3.80021C15.9224 4.0655 15.9881 4.41185 15.7838 4.6845C15.6451 4.8761 14.6746 4.88347 14.6527 5.10454C14.6235 5.42878 14.7986 5.8783 15.1635 5.93725C15.594 6.00357 16.9805 5.80461 17.2578 6.1878C17.411 6.39414 16.9878 6.93945 17.09 7.08683C17.2359 7.29317 17.6883 7.11631 17.827 7.47739C17.9 7.68373 17.8708 7.89006 17.8124 8.08166C17.6956 8.42801 17.0243 8.47959 16.6667 8.2143C16.6959 8.48696 16.8419 9.01754 16.5865 9.06912C16.1194 9.15755 15.7473 8.80383 15.3459 8.60487C15.2657 8.56802 15.1489 8.59013 15.054 8.59013C15.0759 8.89963 14.9373 9.1944 14.9519 9.5039C15.8494 9.76919 16.7689 9.65865 17.681 9.62917C17.8927 9.62917 18.1116 9.48916 18.3305 9.47442C18.491 9.46705 18.6954 9.47442 18.8121 9.6218C19.0894 9.95341 19.0456 10.4471 18.7027 10.6977C18.5859 10.7788 18.1262 10.565 18.0532 10.6461C17.8927 10.8377 18.1189 11.243 17.827 11.3167C17.5643 11.3904 16.6157 11.243 16.4624 11.4567C16.2216 11.7957 16.8273 12.1347 17.1848 12.1641C17.9219 12.2231 19.0821 12.4589 19.8045 12.3336C20.0307 12.2968 20.4175 12.54 20.6364 12.621C21.0816 12.7905 21.0888 13.0632 20.8845 13.4979C20.8407 13.579 20.5926 13.8885 20.4321 13.8369C20.2789 13.7853 19.4105 13.719 19.3375 13.7853C19.1259 13.9843 19.104 14.5517 19.4689 14.5812C19.8045 14.6033 20.9794 13.7559 21.2056 14.3307C21.3953 14.8244 21.6069 16.114 20.3883 16.055C20.257 16.055 19.8191 16.2024 20.4832 16.8362C21.2932 17.6099 19.7462 17.0278 19.7972 17.5436C19.8483 18.0373 21.1837 17.9268 21.5048 18.0299C21.8624 18.1479 21.804 18.5532 21.6069 18.8627C21.4318 19.1353 20.0235 18.5679 19.9651 18.9585C19.9651 19.1943 19.9213 19.6217 20.1475 19.6217C20.797 19.6217 20.8334 20.3512 20.1402 20.5576C19.7753 20.6607 18.9799 20.4912 18.9216 20.9923C19.5345 21.7956 20.7094 21.125 21.7894 20.9334C22.8037 20.7565 23.5626 21.3239 23.7158 21.5745C24.0661 22.1272 23.3218 22.1272 23.548 22.3925C23.891 22.783 24.4456 22.7167 24.9272 22.8346C25.2775 22.923 25.5693 23.1515 25.6569 23.5199C25.7664 23.9768 25.8685 24.5884 25.4161 24.8537C25.2264 24.9643 24.4602 24.5737 24.4091 24.8022C24.2996 25.2811 25.2045 25.6128 24.9564 26.3202C24.7448 26.9245 24.4383 26.416 24.1464 26.5707C23.8837 26.7108 24.0734 27.0424 23.9567 27.2413C23.9056 27.3298 23.8034 27.4698 23.6867 27.4919C23.3583 27.5508 22.074 27.2118 21.7821 27.3224C21.658 27.3666 21.7018 27.6687 21.8769 27.7277C22.3002 27.8824 23.7231 27.8161 24.0953 28.214C24.2048 28.3246 24.3726 28.6267 24.1902 28.6193C24.8834 28.6267 25.7153 28.4425 26.1896 29.0099C26.321 29.172 26.248 29.4963 26.1166 29.7247C26.0291 29.8721 25.8466 29.8942 25.6861 29.9237C25.3796 29.99 24.9564 29.7542 24.8323 30.1005C24.752 30.3363 24.9126 30.6532 24.6207 30.7711C24.5623 30.7932 24.0953 30.5206 24.0223 30.5206C24.0442 30.7638 24.4091 31.847 23.7742 31.8839C22.8329 31.9354 21.7164 31.2206 21.4391 31.3238C21.0743 31.4638 19.9724 31.029 20.0745 31.4786C20.1183 31.648 21.3953 32.4513 21.4902 32.5397C23.0664 33.9767 23.8326 32.3923 26.5837 32.7903C26.8391 32.8271 27.0872 32.9303 27.2039 33.144C27.3353 33.3872 26.7588 33.2766 26.4961 33.3945C26.4742 33.4019 26.3939 33.5419 26.445 33.5493C26.7588 33.6156 27.0288 33.7703 27.1455 33.9988C27.2769 34.2567 27.2331 34.6473 26.9777 34.8757C26.642 35.1778 26.1239 35.082 25.7956 34.7873C26.0145 35.0378 26.4669 35.6274 25.7737 35.8263C25.6715 35.8558 25.4672 35.5316 25.3577 35.6053C25.2483 35.6789 24.7666 35.1189 24.701 35.2294C24.701 35.1778 25.0147 35.8558 25.0147 35.8116C25.1169 36.2685 24.9491 36.6517 24.5039 36.4895C24.2267 36.3864 22.9059 36.2906 22.6359 36.1506C22.2345 35.9369 21.7091 36.0032 21.2786 36.2611C21.0815 36.379 21.1472 36.6517 21.2421 36.7917C21.3224 36.917 21.4683 37.0128 21.6215 37.0422C22.1105 37.1454 23.6283 37.1012 24.088 36.8727C24.5331 36.659 26.5618 37.2707 25.4672 37.8234C25.9196 37.9707 26.1823 37.8234 26.5034 38.1623C26.6566 38.3171 26.518 38.7298 26.321 38.8329C25.8101 39.1129 24.2048 38.5234 24.5988 39.054C25.2483 39.9457 23.3437 39.9457 22.541 39.253C22.2053 38.9582 22.2929 40.3657 23.2123 40.6457C25.4672 40.0857 25.1096 40.7636 25.6934 41.3384C30.9109 41.1395 25.5693 43.4165 26.6785 42.8417C26.4304 42.9744 28.5612 42.9596 28.8093 43.2396C29.0647 43.5344 29.1815 44.1092 28.8604 44.3303C28.5028 44.5661 28.1526 44.3155 27.8607 44.3155C27.9628 44.5882 28.8312 44.883 28.1088 45.5314C27.4885 46.0915 26.6566 45.0009 26.372 45.3398C25.9634 45.8262 26.1458 46.2536 26.4158 46.3568C27.0945 46.5926 27.5761 46.8652 27.8096 47.5358C27.9045 47.8159 27.8388 48.118 27.525 48.2285C27.2185 48.3464 26.6712 47.5579 26.4085 47.3663C25.2774 46.5484 24.285 47.219 25.8539 47.838C26.0655 47.919 26.3574 48.8991 26.248 49.0686C25.8539 49.7023 24.2777 48.4864 23.6794 48.5159C23.621 48.5159 23.5626 48.5454 23.4313 48.5454C22.7818 48.5896 22.9642 49.4665 22.3148 49.5402C21.4975 49.6287 20.7751 49.297 20.0526 48.9065C18.4545 48.0443 18.9216 46.4747 17.4183 47.2632C17.1411 47.4106 17.0608 47.838 16.7835 48.0075C16.6302 48.0959 16.3967 48.0075 16.207 48.0517C16.1486 48.0738 16.0319 48.3833 16.0173 48.4717L16.0465 55.4208H12.8284L12.8503 49.496C12.8503 49.496 12.0768 49.017 11.9016 49.0244C10.9895 49.0612 9.56653 50.3582 8.78573 49.6729C8.50114 49.415 9.25275 48.5749 9.01194 48.2285C8.15087 47.838 7.8079 48.8917 7.17304 49.2012C6.91764 49.3192 6.43603 49.7687 6.29738 49.2897C6.14414 48.7591 5.78657 48.9286 5.34874 49.0465C5.02036 49.1423 4.82334 49.5844 4.48037 49.7171C3.95497 49.9013 2.88228 50.034 2.50282 49.5329C2.28391 49.2307 2.75823 48.538 3.1012 48.3391C3.72146 47.9043 3.0793 47.6537 2.84579 47.7569C1.15284 48.5159 -0.0220155 48.2285 0.415818 47.6169C0.700409 47.219 -0.03661 47.0421 0.0363622 46.6663C0.0655511 46.5115 0.196901 46.4084 0.364737 46.3568C0.941218 46.2094 2.08688 47.1305 2.42255 46.4305C2.42985 46.4084 2.8166 45.9441 2.8239 45.922C2.86768 45.7672 2.45904 45.6346 2.37877 45.5683C2.21823 45.443 1.7877 45.8262 1.56148 45.7746C1.18932 45.6862 0.977704 45.3472 0.809868 45.0598C0.685815 44.8387 0.517979 44.264 0.912029 44.1239C1.30608 43.9913 1.87526 44.205 2.28391 44.1239" fill="#486A32"></path></svg> 