<?xml version="1.0" encoding="UTF-8"?> <svg xmlns="http://www.w3.org/2000/svg" xmlns:xlink="http://www.w3.org/1999/xlink" id="Layer_2" viewBox="0 0 772.92 161.31"><defs><style>.cls-1{fill:url(#linear-gradient);}.cls-2{fill:#f5b335;}.cls-3{fill:#1f1646;}</style><linearGradient id="linear-gradient" x1="0" y1="80.66" x2="196.95" y2="80.66" gradientUnits="userSpaceOnUse"><stop offset="0" stop-color="#f5333f" stop-opacity="0"></stop><stop offset=".1" stop-color="#f5333f" stop-opacity=".06"></stop><stop offset=".29" stop-color="#f5333f" stop-opacity=".22"></stop><stop offset=".55" stop-color="#f5333f" stop-opacity=".49"></stop><stop offset=".87" stop-color="#f5333f" stop-opacity=".84"></stop><stop offset="1" stop-color="#f5333f"></stop></linearGradient></defs><g id="Layer_3"><path class="cls-3" d="m289.72,80.7v44.65h-12.7v-9.77c-4.46,6.7-12.69,10.61-24.28,10.61-16.74,0-27.35-8.93-27.35-21.77,0-11.86,7.67-21.63,29.72-21.63h21.21v-2.65c0-11.3-6.56-17.86-19.82-17.86-8.79,0-17.72,3.07-23.44,7.96l-5.58-10.05c7.67-6.14,18.7-9.49,30.56-9.49,20.23,0,31.67,9.77,31.67,30Zm-13.39,22.05v-10.33h-20.65c-13.25,0-17.02,5.16-17.02,11.44,0,7.4,6.14,12,16.33,12s18-4.6,21.35-13.11Z"></path><path class="cls-3" d="m323.08,117.54l5.58-10.61c6.28,4.47,16.33,7.68,25.95,7.68,12.42,0,17.58-3.77,17.58-10.05,0-16.6-46.74-2.23-46.74-31.67,0-13.26,11.86-22.19,30.84-22.19,9.63,0,20.51,2.51,26.93,6.7l-5.72,10.6c-6.7-4.32-14.1-5.86-21.35-5.86-11.72,0-17.44,4.33-17.44,10.19,0,17.44,46.88,3.21,46.88,31.95,0,13.4-12.28,21.91-31.95,21.91-12.28,0-24.42-3.77-30.56-8.65Z"></path><path class="cls-3" d="m414.6,88.37c0-22.04,16.33-37.67,39.07-37.67,13.25,0,24.28,5.44,30.14,15.77l-10.19,6.56c-4.74-7.26-12-10.61-20.09-10.61-14.51,0-25.4,10.19-25.4,25.95s10.89,26.1,25.4,26.1c8.09,0,15.35-3.35,20.09-10.61l10.19,6.42c-5.86,10.33-16.89,15.91-30.14,15.91-22.74,0-39.07-15.77-39.07-37.82Z"></path><path class="cls-3" d="m584.68,92.84h-60c1.67,12.98,12.14,21.63,26.79,21.63,8.65,0,15.9-2.93,21.35-8.93l7.4,8.65c-6.7,7.81-16.88,12-29.16,12-23.86,0-39.77-15.77-39.77-37.82s15.77-37.67,37.12-37.67,36.56,15.35,36.56,38.09c0,1.12-.14,2.79-.28,4.05Zm-60-9.63h47.44c-1.4-12.42-10.75-21.21-23.72-21.21s-22.33,8.65-23.72,21.21Z"></path><path class="cls-3" d="m690.94,82.79v42.56h-13.39v-41.02c0-14.51-7.26-21.63-19.96-21.63-14.23,0-23.44,8.51-23.44,24.56v38.09h-13.39V51.4h12.83v11.16c5.44-7.53,14.93-11.86,26.65-11.86,18,0,30.7,10.33,30.7,32.09Z"></path><path class="cls-3" d="m772.92,121.02c-4.05,3.49-10.19,5.17-16.19,5.17-14.93,0-23.44-8.24-23.44-23.17v-40.6h-12.56v-11.02h12.56v-16.19h13.4v16.19h21.21v11.02h-21.21v40.05c0,7.95,4.18,12.42,11.58,12.42,3.9,0,7.67-1.26,10.46-3.49l4.19,9.63Z"></path><path class="cls-2" d="m196.95,161.31l-45.69-121.23L177.36,0l-30.68,27.91-3.73-9.9c-.29-.72-7.36-17.72-26.73-17.72h-47.81l27.73,73.59L0,161.31h72.36l35.92-55.19,14.03,37.22,1.33,3.37.31-.04c4.28,7.69,11.81,12.92,20.55,14.28v.37h52.45ZM81.51,9.36l35-.02c12.86,0,17.83,11.58,17.98,11.96l4.96,13.17-36.09,32.82-21.86-57.94Zm-14.07,142.89H23.46l76.12-69.23,4.74,12.58-36.87,56.65Zm39.37-75.82l24.45-22.24-20.79,31.95-3.66-9.7Zm24,63.61l-16.37-43.38,30.68-47.14,38.71,102.72h-30.43l-4.54-.02c-7.97,0-15.06-4.79-18.06-12.19Z"></path><path class="cls-1" d="m196.95,161.31l-45.69-121.23L177.36,0l-30.68,27.91-3.73-9.9c-.29-.72-7.36-17.72-26.73-17.72h-47.81l27.73,73.59L0,161.31h72.36l35.92-55.19,14.03,37.22,1.33,3.37.31-.04c4.28,7.69,11.81,12.92,20.55,14.28v.37h52.45ZM81.51,9.36l35-.02c12.86,0,17.83,11.58,17.98,11.96l4.96,13.17-36.1,32.84-21.84-57.96Zm-14.07,142.89H23.46l76.12-69.23,4.74,12.58-36.87,56.65Zm39.35-75.8l24.48-22.26-20.82,31.98-3.66-9.72Zm24.02,63.59l-16.39-43.34,30.7-47.17,38.71,102.72h-30.43l-4.54-.02c-7.97,0-15.06-4.79-18.06-12.19Z"></path></g></svg> 